<?xml version="1.0" encoding="iso-8859-1"?>
<!-- Generator: Adobe Illustrator 19.0.0, SVG Export Plug-In . SVG Version: 6.00 Build 0)  -->
<svg version="1.1" id="Layer_1" xmlns="http://www.w3.org/2000/svg" xmlns:xlink="http://www.w3.org/1999/xlink" x="0px" y="0px"
	 viewBox="0 0 512 512" style="enable-background:new 0 0 512 512;" xml:space="preserve">
<circle style="fill:#5F666F;" cx="256" cy="256.001" r="248.033"/>
<circle style="fill:#DBE7F2;" cx="256" cy="199.357" r="25.85"/>
<path style="opacity:0.08;enable-background:new    ;" d="M184.825,18.351C123.119,36.806,71.507,78.625,40.264,133.55
	c12.671,5.427,26.624,8.437,41.281,8.437c57.956,0,104.94-46.984,104.94-104.94C186.487,30.666,185.916,24.418,184.825,18.351z"/>
<circle style="opacity:0.08;enable-background:new    ;" cx="355.391" cy="361.044" r="54.412"/>
<circle style="opacity:0.08;enable-background:new    ;" cx="161.495" cy="341.773" r="97.692"/>
<path style="opacity:0.08;enable-background:new    ;" d="M279.924,480.109c-136.984,0-248.033-111.047-248.033-248.033
	c0-62.404,23.053-119.419,61.098-163.011C40.89,114.534,7.967,181.42,7.967,256.001c0,136.984,111.048,248.033,248.033,248.033
	c74.581,0,141.466-32.923,186.934-85.021C399.342,457.057,342.327,480.109,279.924,480.109z"/>
<path d="M166.038,156.048h-11.399c-4.4,0-7.967,3.567-7.967,7.967c0,4.4,3.567,7.967,7.967,7.967h11.399
	c4.4,0,7.967-3.567,7.967-7.967C174.005,159.615,170.438,156.048,166.038,156.048z M256.003,165.544
	c-18.647,0-33.818,15.17-33.818,33.817s15.17,33.817,33.818,33.817c18.647,0,33.817-15.17,33.817-33.817
	S274.65,165.544,256.003,165.544z M256.003,217.244c-9.861,0-17.883-8.022-17.883-17.882c0-9.861,8.022-17.882,17.883-17.882
	c9.861,0,17.882,8.022,17.882,17.882C273.885,209.222,265.864,217.244,256.003,217.244z M437.019,74.981
	C388.667,26.63,324.38,0.001,256,0.001S123.333,26.63,74.981,74.981C26.628,123.333,0,187.621,0,256.001
	s26.628,132.667,74.981,181.019c48.352,48.352,112.639,74.98,181.019,74.98s132.667-26.628,181.019-74.98S512,324.38,512,256.001
	S485.372,123.333,437.019,74.981z M425.752,425.752C380.409,471.095,320.123,496.066,256,496.066s-124.409-24.971-169.752-70.313
	C40.906,380.41,15.935,320.125,15.935,256.001S40.906,131.591,86.248,86.249S191.877,15.935,256,15.935
	s124.409,24.971,169.752,70.313s70.313,105.628,70.313,169.752S471.094,380.41,425.752,425.752z M357.366,156.048h-11.398
	c-4.4,0-7.967,3.567-7.967,7.967c0,4.4,3.567,7.967,7.967,7.967h11.398c4.4,0,7.967-3.567,7.967-7.967
	C365.334,159.615,361.767,156.048,357.366,156.048z"/>
<g>
</g>
<g>
</g>
<g>
</g>
<g>
</g>
<g>
</g>
<g>
</g>
<g>
</g>
<g>
</g>
<g>
</g>
<g>
</g>
<g>
</g>
<g>
</g>
<g>
</g>
<g>
</g>
<g>
</g>
</svg>
